<svg aria-hidden="true" style="width:0;height:0;position:absolute;overflow:hidden" xmlns="http://www.w3.org/2000/svg"><defs><symbol id="icon-arrow-btn-offerings" viewBox="0 0 32 32"><path d="M21.623 15.196a.84.84 0 0 1 0 1.19l-8.593 8.595a.84.84 0 0 1-1.19 0l-.399-.397a.839.839 0 0 1 0-1.192l7.599-7.599-7.599-7.601a.839.839 0 0 1 0-1.192l.399-.397a.84.84 0 0 1 1.19 0l8.593 8.593z"/></symbol><symbol id="icon-arrow-left-desktop" viewBox="0 0 37 32"><path fill="#fefefe" style="fill:var(--color1,#fefefe)" d="M2.667 21.333v-16A5.333 5.333 0 0 1 8 0h21.333a5.333 5.333 0 0 1 5.333 5.333v16a5.333 5.333 0 0 1-5.333 5.333H8a5.333 5.333 0 0 1-5.333-5.333z"/><path fill="#2c2c2c" style="fill:var(--color2,#2c2c2c)" d="m11.633 13.937 9.289 8.85a.832.832 0 0 0 1.15 0l.01-.01a.764.764 0 0 0 0-1.111l-8.747-8.333 8.747-8.33a.765.765 0 0 0 .001-1.112l-.01-.01a.832.832 0 0 0-1.15 0l-9.289 8.85a.832.832 0 0 0 0 1.206z"/></symbol><symbol id="icon-arrow-left-tablet" viewBox="0 0 37 32"><path fill="#fff" style="fill:var(--color3,#fff)" d="M3.556 21.333V3.555A3.556 3.556 0 0 1 7.112-.001h23.111a3.556 3.556 0 0 1 3.556 3.556v17.778a3.556 3.556 0 0 1-3.556 3.556H7.112a3.556 3.556 0 0 1-3.556-3.556z"/><path fill="#fff" style="fill:var(--color3,#fff);stroke:var(--color2,#2c2c2c)" stroke="#2c2c2c" stroke-width=".889" d="M12.231 12.686a.341.341 0 0 1-.076-.108l-.001-.002a.331.331 0 0 1 .001-.266l-.001.002a.344.344 0 0 1 .076-.109l8.669-8.26a.333.333 0 0 1 .457-.003l.013.013a.27.27 0 0 1 .062.303l.001-.002a.273.273 0 0 1-.062.09h-.001l-8.501 8.097 8.501 8.1a.273.273 0 0 1 .062.306l.001-.002a.273.273 0 0 1-.062.09l-.013.013a.332.332 0 0 1-.457-.003l-8.669-8.26z"/></symbol><symbol id="icon-arrow-right-desktop" viewBox="0 0 37 32"><path fill="#fefefe" style="fill:var(--color1,#fefefe)" d="M34.667 5.333v16a5.333 5.333 0 0 1-5.333 5.333H8.001a5.333 5.333 0 0 1-5.333-5.333v-16A5.333 5.333 0 0 1 8.001 0h21.333a5.333 5.333 0 0 1 5.333 5.333z"/><path fill="#2c2c2c" style="fill:var(--color2,#2c2c2c)" d="m25.7 12.73-9.289-8.85a.832.832 0 0 0-1.15 0l-.01.01a.764.764 0 0 0 0 1.111l8.747 8.333-8.747 8.331a.764.764 0 0 0 0 1.111l.01.01a.832.832 0 0 0 1.15 0l9.289-8.85a.832.832 0 0 0 0-1.206z"/></symbol><symbol id="icon-arrow-right-tablet" viewBox="0 0 37 32"><path fill="#fff" style="fill:var(--color3,#fff)" d="M33.778 3.556v17.778a3.556 3.556 0 0 1-3.556 3.556H7.111a3.556 3.556 0 0 1-3.556-3.556V3.556A3.556 3.556 0 0 1 7.111 0h23.111a3.556 3.556 0 0 1 3.556 3.556z"/><path fill="#fff" style="fill:var(--color3,#fff);stroke:var(--color2,#2c2c2c)" stroke="#2c2c2c" stroke-width=".889" d="M25.102 12.203a.333.333 0 0 1 0 .482l-8.669 8.26a.333.333 0 0 1-.457.003l-.013-.013a.273.273 0 0 1 0-.392h.001l8.501-8.097-8.501-8.1a.273.273 0 0 1-.062-.306l-.001.002a.273.273 0 0 1 .062-.09l.013-.013a.332.332 0 0 1 .457.003l8.669 8.26z"/></symbol><symbol id="icon-error" viewBox="0 0 32 32"><path fill="none" stroke="#ff705d" style="stroke:var(--color4,#ff705d)" stroke-linejoin="round" stroke-linecap="round" stroke-width="2.285" d="M16 11.429v6.856m0 8a1.144 1.144 0 1 0-.003-2.286H16a1.144 1.144 0 0 0-.003 2.286H16z"/><path fill="none" stroke="#ff705d" style="stroke:var(--color4,#ff705d)" stroke-linejoin="round" stroke-linecap="round" stroke-width="2.285" d="M18.035 2.4a2.284 2.284 0 0 0-4.06-.012l-.006.013L1.396 27.542a2.285 2.285 0 0 0 2.034 3.314h25.144a2.285 2.285 0 0 0 2.028-3.325l.006.013L18.035 2.397z"/></symbol><symbol id="icon-hand" viewBox="0 0 32 32"><path d="M32 16c0 8.837-7.163 16-16 16S0 24.837 0 16 7.163 0 16 0s16 7.163 16 16z"/><path d="M15.667 6.222c1.349 0 2.5.471 3.456 1.411s1.433 2.085 1.433 3.433a4.9 4.9 0 0 1-.5 2.178 4.951 4.951 0 0 1-1.4 1.725l-.011.008h-.755v-1.111c.418-.33.752-.747.98-1.224l.009-.021c.218-.451.345-.981.345-1.54v-.016.001c0-.978-.349-1.807-1.045-2.489s-1.533-1.023-2.511-1.023c-.977 0-1.815.341-2.511 1.023s-1.045 1.511-1.045 2.489c0 .548.115 1.067.345 1.555.236.498.571.915.981 1.239l.007.005v1.6a4.875 4.875 0 0 1-1.943-1.801l-.012-.021a4.84 4.84 0 0 1-.711-2.541v-.039.002c0-1.348.478-2.493 1.433-3.433s2.107-1.411 3.455-1.411zm-.844 18.667c-.252 0-.489-.048-.711-.144a1.86 1.86 0 0 1-.578-.389l-4.577-4.577 1.244-1.289c.207-.207.441-.367.7-.477a1.191 1.191 0 0 1 .82-.054l-.009-.002 1.733.4v-7.244c0-.623.215-1.149.645-1.578s.955-.645 1.577-.645c.623 0 1.149.215 1.578.645s.645.955.645 1.578v3.822h.577c.074 0 .141.015.2.045s.127.059.2.089l3.289 1.6c.355.163.618.426.789.789s.219.737.145 1.123l-.8 4.844c-.071.431-.298.8-.619 1.053l-.004.003a1.783 1.783 0 0 1-1.143.411h-5.701zm-.178-1.334h6.245l.955-5.533L17.778 16h-1.222v-4.889c0-.267-.082-.482-.245-.645s-.378-.245-.645-.245-.481.082-.644.245c-.163.163-.245.378-.245.645v8.867l-3.422-.733-.511.511 3.8 3.8zm6.244 0z"/></symbol><symbol id="icon-logo" viewBox="0 0 44 32"><path fill="#ffe553" style="fill:var(--color6,#ffe553)" d="M16.496 6.456c1.013-1.983 3.846-1.983 4.859 0l1.283 2.51a2.737 2.737 0 0 0 1.986 1.45l.016.002 2.78.442c2.202.35 3.079 3.049 1.502 4.624l-1.985 1.984a2.72 2.72 0 0 0-.763 2.372l-.002-.016.437 2.772c.348 2.2-1.945 3.868-3.931 2.859l-2.517-1.279c-.36-.186-.785-.296-1.236-.296s-.876.109-1.251.303l.015-.007-2.517 1.279c-1.986 1.008-4.279-.659-3.932-2.859l.438-2.772a2.717 2.717 0 0 0-.765-2.356l-1.984-1.983c-1.577-1.576-.7-4.275 1.502-4.625l2.78-.442a2.736 2.736 0 0 0 1.994-1.438l.007-.015 1.283-2.51z"/><path fill="#2c2c2c" style="fill:var(--color2,#2c2c2c)" d="m3.476 20.533-.022.005a76.868 76.868 0 0 0-.013 1.932c0 .157-.003.285-.01.384l.001.336v.005c0 .103-.007.204-.02.303l.001-.012-.019.207c-.014.13-.043.2-.085.21-.092.022-.236-.049-.432-.212-.198-.171-.311-.319-.341-.447s-.038-1.06-.024-2.798c.021-1.739-.026-2.884-.141-3.432a.421.421 0 0 1 .014-.275l-.001.003c.036-.166.22-.321.551-.467.339-.147.845-.301 1.518-.459.68-.161 1.219-.251 1.619-.27.406-.021.624.031.654.159.02.085-.026.159-.138.223a4.95 4.95 0 0 1-.265.145l-.033.015c-.088.036-.205.082-.348.138-.327.105-.461.152-.595.201l.19-.061c-.125.038-.289.091-.489.161a22.37 22.37 0 0 0-.537.195c-.166.054-.391.133-.673.237s-.464.169-.548.196a.32.32 0 0 1 .033.093c.078.333.122 1.13.129 2.392a10.81 10.81 0 0 0 1.483-.389l-.077.023c.499-.163.806-.257.92-.284.269-.063.417-.039.444.075.052.22-.212.476-.793.77a8.65 8.65 0 0 1-1.955.696zm6.935-1.951a2.01 2.01 0 0 0-.283-.66l.005.007c-.13-.201-.281-.333-.453-.397-.457.25-.789.728-.995 1.435-.201.698-.237 1.32-.108 1.865s.345.853.646.924c.486-.22.836-.669 1.049-1.347.219-.687.265-1.296.139-1.827zm-2.772.755c.117-.611.332-1.14.644-1.588.318-.456.686-.734 1.104-.833.425-.1.822-.003 1.191.291.367.287.612.689.734 1.206.121.509.121 1.063.001 1.66a3.786 3.786 0 0 1-.722 1.58l.006-.008c-.35.449-.769.731-1.258.846-.361.085-.701-.01-1.021-.286s-.54-.669-.661-1.179c-.122-.516-.129-1.079-.019-1.688zm7.585-1.891a2.01 2.01 0 0 0-.283-.66l.005.008c-.13-.201-.281-.333-.453-.397-.457.25-.789.728-.995 1.434-.201.698-.237 1.32-.108 1.865s.345.853.646.925c.486-.22.836-.669 1.049-1.347.219-.687.265-1.296.139-1.827zm-2.771.754c.117-.611.332-1.14.644-1.587.318-.457.686-.734 1.104-.833.425-.1.822-.003 1.191.291.367.287.612.69.734 1.207.121.509.121 1.063.001 1.66a3.762 3.762 0 0 1-.722 1.58l.006-.008c-.35.449-.769.731-1.258.846-.361.085-.701-.01-1.021-.286s-.54-.669-.661-1.179c-.122-.517-.129-1.079-.019-1.689zm7.791-6.987c.113-.026.276.047.489.222.219.165.35.339.394.524s.079.728.107 1.635c.026.899.031 1.835.016 2.811-.019 2.189-.111 3.302-.274 3.34-.099.023-.223-.011-.372-.103-.144-.1-.226-.197-.248-.289s-.041-.282-.056-.57c-.526.872-1.048 1.369-1.565 1.491-.312.074-.629-.001-.951-.224-.315-.225-.508-.489-.581-.794-.104-.439-.11-.987-.019-1.644a5.585 5.585 0 0 1 .652-1.929l-.015.028c.329-.601.745-.961 1.247-1.079s.925.099 1.266.654c.005-1.586-.078-2.819-.248-3.699-.05-.212.002-.337.158-.373zm.067 5.492c-.09-.383-.234-.689-.431-.919-.189-.232-.376-.326-.56-.282-.304.072-.572.333-.801.784a4.555 4.555 0 0 0-.455 1.452l-.003.024c-.07.525-.063.964.021 1.318.03.127.1.22.211.275a.497.497 0 0 0 .361.038l-.004.001c.276-.065.601-.351.974-.858a3.56 3.56 0 0 0 .698-1.646l.001-.135-.013-.053zm6.783-.637c.137.581-.009 1.131-.439 1.651-.432.513-.988.85-1.667 1.01-.673.159-1.27.117-1.791-.126-.523-.251-.822-.531-.895-.843-.05-.212-.012-.334.115-.364.113-.026.376.091.791.352.156.09.353.163.59.22.245.055.488.053.728-.004a2.382 2.382 0 0 0 1.227-.693c.329-.347.458-.669.388-.966-.046-.191-.231-.405-.557-.643a7.381 7.381 0 0 0-1.006-.619l-.043-.02a8.218 8.218 0 0 1-1.065-.677l.021.015c-.327-.245-.511-.455-.553-.632a1.68 1.68 0 0 1-.027-.597l-.001.009c.024-.215.068-.378.131-.491.205-.37.567-.75 1.087-1.142.527-.394.989-.637 1.387-.731.205-.049.394-.023.568.078s.278.226.314.375c.016.07-.045.144-.183.222s-.352.188-.64.331a5.273 5.273 0 0 0-.741.422c-.74.504-1.077.901-1.008 1.192.037.156.554.493 1.552 1.013.384.201.747.456 1.09.764.348.299.557.597.627.895zm2.44.534c.031.134.125.183.281.146.27-.063.577-.215.925-.454.353-.248.55-.376.592-.386.127-.03.207.022.239.157.049.205-.107.493-.469.862-.354.368-.705.592-1.052.674-.34.08-.645.055-.915-.075-.272-.138-.431-.306-.478-.504s-.064-.46-.051-.784c.011-.331.035-.767.072-1.306.043-.548.07-1 .083-1.355-.315.157-.528.248-.642.275s-.24-.003-.38-.09c-.135-.095-.215-.196-.24-.302-.041-.17.381-.442 1.265-.815a7.714 7.714 0 0 0-.179-1.606c-.05-.212-.004-.335.137-.369.12-.028.288.014.502.129.212.107.341.256.387.447s.065.542.058 1.052c.395-.131.713-.225.954-.282.425-.1.659-.058.703.126.025.107-.07.223-.287.348-.21.125-.665.348-1.367.671-.016.594-.052 1.28-.107 2.056-.057.769-.067 1.23-.03 1.387zm4.747-5.562c.319-.075.651.019.998.28.344.255.548.514.61.776.06.255.034.538-.079.849.11.086.174.168.193.246.047.198.082.549.104 1.052.029.502.051.829.065.983.021.152.035.276.043.371.006.088.009.178.008.267.013.184-.029.287-.129.311-.127.03-.26-.055-.397-.254a3.181 3.181 0 0 1-.345-.839c-.44.949-.93 1.487-1.468 1.614-.326.077-.68.014-1.065-.186-.378-.21-.603-.463-.674-.76-.1-.425-.069-.985.095-1.682.162-.704.433-1.358.813-1.964s.789-.96 1.229-1.064zm.932 1.754c-.156-.659-.365-.956-.627-.895-.276.065-.552.339-.826.823a5.88 5.88 0 0 0-.62 1.548c-.138.556-.172.979-.103 1.269a.373.373 0 0 0 .217.261l.002.001a.596.596 0 0 0 .38.023l-.004.001c.333-.079.655-.39.968-.935.311-.552.471-1.17.481-1.852-.004-.111.041-.19.136-.234l-.002-.011z"/><path fill="#bbf330" style="fill:var(--color7,#bbf330)" d="M33.157 19.973a.918.918 0 0 0-.643.602c-1.911 5.65-7.263 9.719-13.572 9.719h-.021a14.238 14.238 0 0 1-9.851-3.94l.006.006a.914.914 0 0 0-.853-.231l.006-.001c-.641.158-.883.934-.408 1.392a15.93 15.93 0 0 0 11.099 4.481h.025-.001c7.096 0 13.116-4.605 15.223-10.986.207-.626-.368-1.198-1.009-1.041zM4.187 14.15a.91.91 0 0 0 .666-.719l.001-.005c1.213-6.664 7.058-11.72 14.089-11.72 4.571 0 8.641 2.138 11.263 5.464.22.279.58.414.925.328.585-.144.85-.824.48-1.3A16.01 16.01 0 0 0 18.943 0C11.041 0 4.475 5.711 3.158 13.224c-.104.593.446 1.07 1.03.926z"/><path fill="#bbf330" style="fill:var(--color7,#bbf330);stroke:var(--color7,#bbf330)" stroke="#bbf330" stroke-linejoin="round" stroke-width=".627" d="M43.041 5.331c-3.787 7.241-5.45 2.465-10.782 5.271.533-8.405 6.18-3.291 10.782-5.271z"/></symbol><symbol id="icon-menu" viewBox="0 0 32 32"><path fill="#7eb101" style="fill:var(--color5,#7eb101)" d="M2.666 8c0-.737.597-1.334 1.334-1.334h24a1.334 1.334 0 1 1 0 2.668H4A1.334 1.334 0 0 1 2.666 8zm0 8.042A1.335 1.335 0 0 1 4 14.709h24l.039-.001a1.334 1.334 0 1 1 0 2.668l-.041-.001H28 4a1.334 1.334 0 0 1-1.334-1.334zM4 22.752a1.334 1.334 0 0 0-.002 2.666H28l.039.001a1.334 1.334 0 1 0 0-2.668l-.041.001H28 4z"/></symbol><symbol id="icon-one-star" viewBox="0 0 36 32"><path fill="#ffe550" style="fill:var(--color8,#ffe550)" d="M17.02 1.038c.592-1.384 2.61-1.384 3.202 0l3.5 8.164c.248.582.812.98 1.46 1.032l9.08.706c1.54.12 2.162 1.982.99 2.958l-6.916 5.752a1.655 1.655 0 0 0-.557 1.682l-.002-.011 2.114 8.6c.358 1.456-1.276 2.608-2.592 1.828l-7.774-4.61a1.778 1.778 0 0 0-1.816.004l.008-.005-7.774 4.61c-1.316.78-2.95-.372-2.592-1.828l2.114-8.6a1.653 1.653 0 0 0-.558-1.668l-.003-.002-6.914-5.752c-1.172-.976-.548-2.84.99-2.96l9.08-.704a1.737 1.737 0 0 0 1.456-1.023l.004-.011 3.5-8.162z"/></symbol><symbol id="icon-rocket" viewBox="0 0 32 32"><path d="M32 16c0 8.837-7.163 16-16 16S0 24.837 0 16 7.163 0 16 0s16 7.163 16 16z"/><path d="m9.489 14.422 2.356 1c.267-.533.551-1.059.855-1.577s.626-1.015.967-1.489l-1.755-.355-2.423 2.422zm3.422 1.8 2.955 2.956a17.39 17.39 0 0 0 2.442-1.351l-.064.04c.74-.489 1.34-.963 1.8-1.422 1.2-1.2 2.081-2.43 2.644-3.689s.867-2.681.911-4.267c-1.585.045-3.007.349-4.267.911s-2.489 1.445-3.689 2.645c-.46.459-.933 1.059-1.423 1.8a17.031 17.031 0 0 0-1.266 2.269l-.045.108zM18 14.089c-.296-.296-.445-.663-.445-1.1s.149-.803.445-1.1c.296-.296.663-.444 1.1-.444s.804.148 1.1.444c.296.297.445.663.445 1.1s-.149.804-.445 1.1c-.296.297-.663.445-1.1.445s-.804-.148-1.1-.445zm-.333 8.511 2.422-2.422-.355-1.756c-.474.341-.971.663-1.489.967s-1.045.589-1.578.856l1 2.355zm7.244-15.422c.133 2.015-.119 3.851-.756 5.511S22.466 15.912 21 17.378l-.045.044-.044.045.489 2.445c.045.222.033.437-.033.644s-.181.393-.345.556l-3.8 3.822-1.889-4.4-3.778-3.778-4.4-1.889 3.823-3.8c.163-.163.348-.278.555-.345s.422-.077.645-.033l2.444.489a.181.181 0 0 1 .044-.033h.001a.187.187 0 0 0 .045-.033c1.467-1.467 3.029-2.523 4.689-3.167s3.496-.9 5.511-.767zM8.645 19.445c.518-.519 1.151-.782 1.9-.789s1.381.249 1.9.767c.518.519.773 1.152.767 1.9s-.271 1.382-.789 1.9c-.385.385-.981.704-1.789.956s-2.019.489-3.633.711c.222-1.615.455-2.829.7-3.644s.559-1.415.945-1.8zm.933.955c-.207.222-.393.571-.556 1.045s-.303 1.081-.422 1.822c.741-.119 1.348-.259 1.822-.422s.823-.349 1.045-.556c.281-.251.426-.567.433-.944l.001-.041c0-.37-.149-.705-.389-.949a1.345 1.345 0 0 0-.949-.389l-.042.001h.002a1.248 1.248 0 0 0-.943.432l-.001.002z"/></symbol><symbol id="icon-stars" viewBox="0 0 200 32"><path fill="#ffe550" style="fill:var(--color8,#ffe550)" d="M15.64 1.038c.592-1.384 2.61-1.384 3.204 0L22.34 9.2c.25.582.814.98 1.462 1.032l9.08.706c1.54.12 2.162 1.982.99 2.958l-6.918 5.752a1.655 1.655 0 0 0-.557 1.682l-.002-.011 2.114 8.6c.36 1.456-1.274 2.608-2.592 1.828l-7.772-4.61a1.778 1.778 0 0 0-1.816.004l.008-.005-7.774 4.61c-1.318.78-2.95-.372-2.592-1.828l2.114-8.6a1.653 1.653 0 0 0-.558-1.668l-.003-.002-6.916-5.75c-1.172-.978-.548-2.84.992-2.96l9.08-.704a1.738 1.738 0 0 0 1.46-1.021l.004-.011 3.496-8.164zm41.38 0c.59-1.384 2.61-1.384 3.202 0l3.5 8.164c.248.582.812.98 1.46 1.032l9.08.706c1.54.12 2.162 1.982.99 2.958l-6.916 5.752a1.655 1.655 0 0 0-.557 1.682l-.002-.011 2.114 8.6c.358 1.456-1.276 2.608-2.592 1.828l-7.774-4.61a1.778 1.778 0 0 0-1.816.004l.008-.005-7.774 4.61c-1.316.78-2.95-.372-2.592-1.828l2.114-8.6a1.653 1.653 0 0 0-.558-1.668l-.003-.002-6.916-5.752c-1.172-.976-.548-2.84.99-2.96l9.08-.704a1.735 1.735 0 0 0 1.458-1.021l.004-.011 3.5-8.164zm41.378 0c.592-1.384 2.61-1.384 3.204 0l3.496 8.162c.252.582.816.98 1.464 1.032l9.08.706c1.54.12 2.16 1.982.99 2.958l-6.918 5.752a1.655 1.655 0 0 0-.557 1.682l-.002-.011 2.114 8.6c.36 1.456-1.274 2.608-2.592 1.828l-7.772-4.61c-.259-.155-.571-.247-.905-.247s-.646.092-.913.252l.008-.005-7.772 4.61c-1.318.78-2.95-.372-2.592-1.828l2.112-8.6a1.65 1.65 0 0 0-.555-1.667l-.003-.002-6.918-5.752c-1.172-.976-.548-2.84.99-2.96l9.08-.704a1.738 1.738 0 0 0 1.46-1.021l.004-.011 3.498-8.162zm41.382 0c.59-1.384 2.61-1.384 3.202 0L146.48 9.2c.25.582.814.98 1.464 1.032l9.08.706c1.538.12 2.16 1.982.988 2.958l-6.916 5.752a1.655 1.655 0 0 0-.557 1.682l-.002-.011 2.114 8.6c.358 1.456-1.276 2.608-2.592 1.828l-7.774-4.61a1.778 1.778 0 0 0-1.816.004l.008-.005-7.774 4.61c-1.316.78-2.95-.372-2.592-1.828l2.114-8.6a1.653 1.653 0 0 0-.558-1.668l-.003-.002-6.916-5.752c-1.172-.976-.548-2.84.99-2.96l9.08-.704a1.735 1.735 0 0 0 1.458-1.021l.004-.011 3.5-8.162zm41.378 0c.592-1.384 2.61-1.384 3.204 0l3.494 8.162c.25.582.816.98 1.464 1.032l9.08.706c1.538.12 2.162 1.982.99 2.958l-6.918 5.752a1.655 1.655 0 0 0-.557 1.682l-.002-.011 2.114 8.6c.36 1.456-1.274 2.608-2.592 1.828l-7.772-4.61c-.259-.155-.571-.247-.905-.247s-.646.092-.913.252l.008-.005-7.772 4.61c-1.318.78-2.95-.372-2.592-1.828l2.112-8.6a1.653 1.653 0 0 0-.558-1.668l-.003-.002-6.916-5.752c-1.172-.976-.548-2.84.99-2.96l9.08-.704a1.735 1.735 0 0 0 1.458-1.021l.004-.011 3.504-8.162z"/></symbol><symbol id="close" viewBox="0 0 24 24" fill="none" xmlns="http://www.w3.org/2000/svg"><path d="m13.178 12.046 4.004-4a.823.823 0 0 0-1.162-1.161l-4.003 3.96-4.029-4.026a.824.824 0 0 0-1.161 1.16l4.02 4.067-3.938 3.885a.823.823 0 1 0 1.162 1.161L12 13.166l3.905 3.901a.824.824 0 0 0 1.161-1.16l-3.888-3.86Z" fill="#2C2C2C"/></symbol></defs></svg>