<svg width="42" height="36" fill="none" xmlns="http://www.w3.org/2000/svg"><g filter="url(#a)" fill="#fff"><rect x="38" width="28" height="34" rx="4" transform="rotate(90 38 0)"/><path d="M28.24 13.728a.375.375 0 0 1 0 .543l-9.753 9.293a.375.375 0 0 1-.514.003l-.005-.005-.01-.01a.306.306 0 0 1 0-.441h.001l9.184-8.747.38-.362-.38-.362-9.184-8.75a.308.308 0 0 1-.07-.342.308.308 0 0 1 .07-.101l.009-.009.005-.005a.375.375 0 0 1 .514.003l9.753 9.292Z" stroke="#2C2C2C"/></g><defs><filter id="a" x="0" y="0" width="42" height="36" filterUnits="userSpaceOnUse" color-interpolation-filters="sRGB"><feFlood flood-opacity="0" result="BackgroundImageFix"/><feColorMatrix in="SourceAlpha" values="0 0 0 0 0 0 0 0 0 0 0 0 0 0 0 0 0 0 127 0" result="hardAlpha"/><feOffset dy="4"/><feGaussianBlur stdDeviation="2"/><feComposite in2="hardAlpha" operator="out"/><feColorMatrix values="0 0 0 0 0 0 0 0 0 0 0 0 0 0 0 0 0 0 0.06 0"/><feBlend in2="BackgroundImageFix" result="effect1_dropShadow_480_5187"/><feBlend in="SourceGraphic" in2="effect1_dropShadow_480_5187" result="shape"/></filter></defs></svg>