<svg aria-hidden="true" style="position: absolute; width: 0; height: 0; overflow: hidden;" version="1.1" xmlns="http://www.w3.org/2000/svg" xmlns:xlink="http://www.w3.org/1999/xlink">
<defs>
<symbol id="icon-arrow-btn-offerings" viewBox="0 0 32 32">
<path d="M21.623 15.196c0.152 0.152 0.246 0.363 0.246 0.595s-0.094 0.443-0.246 0.595v0l-8.593 8.595c-0.152 0.152-0.363 0.246-0.595 0.246s-0.443-0.094-0.595-0.246v0l-0.399-0.397c-0.153-0.153-0.247-0.363-0.247-0.596s0.094-0.444 0.247-0.596v0l7.599-7.599-7.599-7.601c-0.153-0.153-0.247-0.363-0.247-0.596s0.094-0.444 0.247-0.596v0l0.399-0.397c0.152-0.152 0.363-0.246 0.595-0.246s0.443 0.094 0.595 0.246v0l8.593 8.593z"></path>
</symbol>
<symbol id="icon-arrow-left-desktop" viewBox="0 0 37 32">
<path fill="#fefefe" style="fill: var(--color1, #fefefe)" d="M2.667 21.333v-16c0-2.946 2.388-5.333 5.333-5.333h21.333c2.946 0 5.333 2.388 5.333 5.333v16c0 2.946-2.388 5.333-5.333 5.333h-21.333c-2.946 0-5.333-2.388-5.333-5.333z"></path>
<path fill="#2c2c2c" style="fill: var(--color2, #2c2c2c)" d="M11.633 13.937l9.289 8.85c0.149 0.142 0.352 0.23 0.575 0.23s0.426-0.088 0.575-0.23l0.010-0.010c0.147-0.14 0.238-0.337 0.238-0.556s-0.091-0.416-0.238-0.555l-0-0-8.747-8.333 8.747-8.33c0.147-0.14 0.239-0.337 0.239-0.556s-0.092-0.416-0.238-0.556l-0.010-0.010c-0.149-0.142-0.352-0.23-0.575-0.23s-0.426 0.088-0.575 0.23l0-0-9.289 8.85c-0.159 0.152-0.258 0.366-0.258 0.603s0.099 0.451 0.258 0.603l0 0z"></path>
</symbol>
<symbol id="icon-arrow-left-tablet" viewBox="0 0 37 32">
<path fill="#fff" style="fill: var(--color3, #fff)" d="M3.556 21.333v-17.778c0-1.964 1.592-3.556 3.556-3.556h23.111c1.964 0 3.556 1.592 3.556 3.556v17.778c0 1.964-1.592 3.556-3.556 3.556h-23.111c-1.964 0-3.556-1.592-3.556-3.556z"></path>
<path fill="#fff" style="fill: var(--color3, #fff); stroke: var(--color2, #2c2c2c)" stroke="#2c2c2c" stroke-linejoin="miter" stroke-linecap="butt" stroke-miterlimit="4" stroke-width="0.8889" d="M12.231 12.686c-0.032-0.031-0.058-0.067-0.076-0.108l-0.001-0.002c-0.017-0.039-0.027-0.084-0.027-0.132s0.010-0.093 0.028-0.134l-0.001 0.002c0.019-0.043 0.045-0.079 0.076-0.109l0-0 8.669-8.26c0.060-0.057 0.141-0.092 0.23-0.092 0.088 0 0.168 0.034 0.227 0.089l0.013 0.013c0.052 0.050 0.084 0.119 0.084 0.196 0 0.038-0.008 0.074-0.022 0.107l0.001-0.002c-0.015 0.035-0.036 0.065-0.062 0.090l-0 0h-0.001l-8.501 8.097 8.501 8.1c0.052 0.050 0.084 0.12 0.084 0.197 0 0.039-0.008 0.075-0.022 0.109l0.001-0.002c-0.015 0.035-0.036 0.065-0.062 0.090l-0.013 0.013c-0.059 0.055-0.139 0.089-0.227 0.089-0.089 0-0.17-0.035-0.23-0.092l0 0-8.669-8.26z"></path>
</symbol>
<symbol id="icon-arrow-right-desktop" viewBox="0 0 37 32">
<path fill="#fefefe" style="fill: var(--color1, #fefefe)" d="M34.667 5.333v16c0 2.946-2.388 5.333-5.333 5.333h-21.333c-2.946 0-5.333-2.388-5.333-5.333v-16c0-2.946 2.388-5.333 5.333-5.333h21.333c2.946 0 5.333 2.388 5.333 5.333z"></path>
<path fill="#2c2c2c" style="fill: var(--color2, #2c2c2c)" d="M25.7 12.73l-9.289-8.85c-0.149-0.142-0.352-0.23-0.575-0.23s-0.426 0.088-0.575 0.23l-0.010 0.010c-0.147 0.14-0.238 0.337-0.238 0.556s0.091 0.416 0.238 0.555l0 0 8.747 8.333-8.747 8.331c-0.147 0.14-0.238 0.337-0.238 0.556s0.091 0.416 0.238 0.555l0.010 0.010c0.149 0.142 0.352 0.23 0.575 0.23s0.426-0.088 0.575-0.23l-0 0 9.289-8.85c0.159-0.152 0.258-0.366 0.258-0.603s-0.099-0.451-0.258-0.603l-0-0z"></path>
</symbol>
<symbol id="icon-arrow-right-tablet" viewBox="0 0 37 32">
<path fill="#fff" style="fill: var(--color3, #fff)" d="M33.778 3.556v17.778c0 1.964-1.592 3.556-3.556 3.556h-23.111c-1.964 0-3.556-1.592-3.556-3.556v-17.778c0-1.964 1.592-3.556 3.556-3.556h23.111c1.964 0 3.556 1.592 3.556 3.556z"></path>
<path fill="#fff" style="fill: var(--color3, #fff); stroke: var(--color2, #2c2c2c)" stroke="#2c2c2c" stroke-linejoin="miter" stroke-linecap="butt" stroke-miterlimit="4" stroke-width="0.8889" d="M25.102 12.203c0.064 0.061 0.103 0.146 0.103 0.241s-0.040 0.181-0.103 0.241l-0 0-8.669 8.26c-0.060 0.057-0.141 0.092-0.23 0.092-0.088 0-0.168-0.034-0.227-0.089l-0.013-0.013c-0.051-0.050-0.083-0.119-0.083-0.196s0.032-0.146 0.083-0.196l0-0h0.001l8.501-8.097-8.501-8.1c-0.052-0.050-0.084-0.12-0.084-0.197 0-0.039 0.008-0.075 0.022-0.109l-0.001 0.002c0.015-0.035 0.036-0.065 0.062-0.090l0.013-0.013c0.059-0.055 0.139-0.089 0.227-0.089 0.089 0 0.17 0.035 0.23 0.092l-0-0 8.669 8.26z"></path>
</symbol>
<symbol id="icon-error" viewBox="0 0 32 32">
<path fill="none" stroke="#ff705d" style="stroke: var(--color4, #ff705d)" stroke-linejoin="round" stroke-linecap="round" stroke-miterlimit="4" stroke-width="2.2853" d="M16 11.429v6.856M16 26.285c0.017 0.001 0.036 0.001 0.055 0.001 0.632 0 1.144-0.512 1.144-1.144s-0.512-1.144-1.144-1.144c-0.019 0-0.039 0-0.058 0.001l0.003-0c-0.608 0.030-1.089 0.53-1.089 1.143s0.481 1.112 1.086 1.143l0.003 0z"></path>
<path fill="none" stroke="#ff705d" style="stroke: var(--color4, #ff705d)" stroke-linejoin="round" stroke-linecap="round" stroke-miterlimit="4" stroke-width="2.2853" d="M18.035 2.4c-0.387-0.743-1.152-1.242-2.033-1.242s-1.646 0.499-2.027 1.23l-0.006 0.013-12.573 25.141c-0.154 0.3-0.245 0.654-0.245 1.029 0 1.26 1.020 2.282 2.279 2.285h25.144c1.259-0.004 2.278-1.026 2.278-2.285 0-0.374-0.090-0.728-0.25-1.040l0.006 0.013-12.573-25.147z"></path>
</symbol>
<symbol id="icon-hand" viewBox="0 0 32 32">
<path fill="#fff" style="fill: var(--color3, #fff)" d="M32 16c0 8.837-7.163 16-16 16s-16-7.163-16-16c0-8.837 7.163-16 16-16s16 7.163 16 16z"></path>
<path fill="#7eb101" style="fill: var(--color5, #7eb101)" d="M15.667 6.222c1.349 0 2.5 0.471 3.456 1.411s1.433 2.085 1.433 3.433c0 0.77-0.167 1.496-0.5 2.178-0.343 0.694-0.82 1.273-1.4 1.725l-0.011 0.008h-0.755v-1.111c0.418-0.33 0.752-0.747 0.98-1.224l0.009-0.021c0.218-0.451 0.345-0.981 0.345-1.54 0-0.005 0-0.011-0-0.016v0.001c0-0.978-0.349-1.807-1.045-2.489s-1.533-1.023-2.511-1.023c-0.977 0-1.815 0.341-2.511 1.023s-1.045 1.511-1.045 2.489c0 0.548 0.115 1.067 0.345 1.555 0.236 0.498 0.571 0.915 0.981 1.239l0.007 0.005v1.6c-0.818-0.422-1.482-1.043-1.943-1.801l-0.012-0.021c-0.447-0.724-0.711-1.602-0.711-2.541 0-0.013 0-0.026 0-0.039v0.002c0-1.348 0.478-2.493 1.433-3.433s2.107-1.411 3.455-1.411zM14.823 24.889c-0.252 0-0.489-0.048-0.711-0.144-0.224-0.097-0.416-0.228-0.578-0.389l-4.577-4.577 1.244-1.289c0.207-0.207 0.441-0.367 0.7-0.477 0.143-0.064 0.309-0.101 0.485-0.101 0.116 0 0.229 0.016 0.335 0.047l-0.009-0.002 1.733 0.4v-7.244c0-0.623 0.215-1.149 0.645-1.578s0.955-0.645 1.577-0.645c0.623 0 1.149 0.215 1.578 0.645s0.645 0.955 0.645 1.578v3.822h0.577c0.074 0 0.141 0.015 0.2 0.045s0.127 0.059 0.2 0.089l3.289 1.6c0.355 0.163 0.618 0.426 0.789 0.789s0.219 0.737 0.145 1.123l-0.8 4.844c-0.071 0.431-0.298 0.8-0.619 1.053l-0.004 0.003c-0.308 0.256-0.707 0.411-1.143 0.411-0.004 0-0.009-0-0.013-0h-5.688zM14.645 23.555h6.245l0.955-5.533-4.067-2.022h-1.222v-4.889c0-0.267-0.082-0.482-0.245-0.645s-0.378-0.245-0.645-0.245-0.481 0.082-0.644 0.245c-0.163 0.163-0.245 0.378-0.245 0.645v8.867l-3.422-0.733-0.511 0.511 3.8 3.8zM20.889 23.555v0z"></path>
</symbol>
<symbol id="icon-logo" viewBox="0 0 44 32">
<path fill="#ffe553" style="fill: var(--color6, #ffe553)" d="M16.496 6.456c1.013-1.983 3.846-1.983 4.859 0l1.283 2.51c0.397 0.764 1.123 1.309 1.986 1.45l0.016 0.002 2.78 0.442c2.202 0.35 3.079 3.049 1.502 4.624l-1.985 1.984c-0.494 0.494-0.799 1.176-0.799 1.93 0 0.151 0.012 0.298 0.036 0.442l-0.002-0.016 0.437 2.772c0.348 2.2-1.945 3.868-3.931 2.859l-2.517-1.279c-0.36-0.186-0.785-0.296-1.236-0.296s-0.876 0.109-1.251 0.303l0.015-0.007-2.517 1.279c-1.986 1.008-4.279-0.659-3.932-2.859l0.438-2.772c0.021-0.128 0.034-0.276 0.034-0.427 0-0.753-0.305-1.436-0.799-1.929l-1.984-1.983c-1.577-1.576-0.7-4.275 1.502-4.625l2.78-0.442c0.878-0.143 1.605-0.689 1.994-1.438l0.007-0.015 1.283-2.51z"></path>
<path fill="#2c2c2c" style="fill: var(--color2, #2c2c2c)" d="M3.476 20.533l-0.022 0.005c0.002 0.074-0.001 0.374-0.011 0.9-0.003 0.524-0.004 0.868-0.002 1.032 0 0.157-0.003 0.285-0.010 0.384l0.001 0.336c0 0.001 0 0.003 0 0.005 0 0.103-0.007 0.204-0.020 0.303l0.001-0.012-0.019 0.207c-0.014 0.13-0.043 0.2-0.085 0.21-0.092 0.022-0.236-0.049-0.432-0.212-0.198-0.171-0.311-0.319-0.341-0.447s-0.038-1.060-0.024-2.798c0.021-1.739-0.026-2.884-0.141-3.432-0.011-0.035-0.017-0.075-0.017-0.116 0-0.056 0.011-0.11 0.031-0.159l-0.001 0.003c0.036-0.166 0.22-0.321 0.551-0.467 0.339-0.147 0.845-0.301 1.518-0.459 0.68-0.161 1.219-0.251 1.619-0.27 0.406-0.021 0.624 0.031 0.654 0.159 0.020 0.085-0.026 0.159-0.138 0.223-0.068 0.041-0.166 0.094-0.265 0.145l-0.033 0.015c-0.088 0.036-0.205 0.082-0.348 0.138-0.327 0.105-0.461 0.152-0.595 0.201l0.19-0.061c-0.125 0.038-0.289 0.091-0.489 0.161-0.193 0.068-0.372 0.132-0.537 0.195-0.166 0.054-0.391 0.133-0.673 0.237s-0.464 0.169-0.548 0.196c0.012 0.019 0.023 0.050 0.033 0.093 0.078 0.333 0.122 1.13 0.129 2.392 0.553-0.106 1.025-0.233 1.483-0.389l-0.077 0.023c0.499-0.163 0.806-0.257 0.92-0.284 0.269-0.063 0.417-0.039 0.444 0.075 0.052 0.22-0.212 0.476-0.793 0.77-0.574 0.292-1.225 0.525-1.955 0.696zM10.411 18.582c-0.058-0.247-0.154-0.466-0.283-0.66l0.005 0.007c-0.13-0.201-0.281-0.333-0.453-0.397-0.457 0.25-0.789 0.728-0.995 1.435-0.201 0.698-0.237 1.32-0.108 1.865s0.345 0.853 0.646 0.924c0.486-0.22 0.836-0.669 1.049-1.347 0.219-0.687 0.265-1.296 0.139-1.827zM7.639 19.337c0.117-0.611 0.332-1.14 0.644-1.588 0.318-0.456 0.686-0.734 1.104-0.833 0.425-0.1 0.822-0.003 1.191 0.291 0.367 0.287 0.612 0.689 0.734 1.206 0.121 0.509 0.121 1.063 0.001 1.66-0.123 0.602-0.373 1.131-0.722 1.58l0.006-0.008c-0.35 0.449-0.769 0.731-1.258 0.846-0.361 0.085-0.701-0.010-1.021-0.286s-0.54-0.669-0.661-1.179c-0.122-0.516-0.129-1.079-0.019-1.688zM15.224 17.446c-0.058-0.247-0.154-0.466-0.283-0.66l0.005 0.008c-0.13-0.201-0.281-0.333-0.453-0.397-0.457 0.25-0.789 0.728-0.995 1.434-0.201 0.698-0.237 1.32-0.108 1.865s0.345 0.853 0.646 0.925c0.486-0.22 0.836-0.669 1.049-1.347 0.219-0.687 0.265-1.296 0.139-1.827zM12.453 18.2c0.117-0.611 0.332-1.14 0.644-1.587 0.318-0.457 0.686-0.734 1.104-0.833 0.425-0.1 0.822-0.003 1.191 0.291 0.367 0.287 0.612 0.69 0.734 1.207 0.121 0.509 0.121 1.063 0.001 1.66-0.122 0.602-0.372 1.131-0.722 1.58l0.006-0.008c-0.35 0.449-0.769 0.731-1.258 0.846-0.361 0.085-0.701-0.010-1.021-0.286s-0.54-0.669-0.661-1.179c-0.122-0.517-0.129-1.079-0.019-1.689zM20.244 11.213c0.113-0.026 0.276 0.047 0.489 0.222 0.219 0.165 0.35 0.339 0.394 0.524s0.079 0.728 0.107 1.635c0.026 0.899 0.031 1.835 0.016 2.811-0.019 2.189-0.111 3.302-0.274 3.34-0.099 0.023-0.223-0.011-0.372-0.103-0.144-0.1-0.226-0.197-0.248-0.289s-0.041-0.282-0.056-0.57c-0.526 0.872-1.048 1.369-1.565 1.491-0.312 0.074-0.629-0.001-0.951-0.224-0.315-0.225-0.508-0.489-0.581-0.794-0.104-0.439-0.11-0.987-0.019-1.644 0.105-0.711 0.329-1.352 0.652-1.929l-0.015 0.028c0.329-0.601 0.745-0.961 1.247-1.079s0.925 0.099 1.266 0.654c0.005-1.586-0.078-2.819-0.248-3.699-0.050-0.212 0.002-0.337 0.158-0.373zM20.311 16.705c-0.090-0.383-0.234-0.689-0.431-0.919-0.189-0.232-0.376-0.326-0.56-0.282-0.304 0.072-0.572 0.333-0.801 0.784-0.221 0.428-0.382 0.926-0.455 1.452l-0.003 0.024c-0.070 0.525-0.063 0.964 0.021 1.318 0.030 0.127 0.1 0.22 0.211 0.275 0.067 0.035 0.146 0.055 0.23 0.055 0.045 0 0.089-0.006 0.131-0.017l-0.004 0.001c0.276-0.065 0.601-0.351 0.974-0.858 0.381-0.508 0.613-1.057 0.698-1.646l0.001-0.135-0.013-0.053zM27.094 16.068c0.137 0.581-0.009 1.131-0.439 1.651-0.432 0.513-0.988 0.85-1.667 1.010-0.673 0.159-1.27 0.117-1.791-0.126-0.523-0.251-0.822-0.531-0.895-0.843-0.050-0.212-0.012-0.334 0.115-0.364 0.113-0.026 0.376 0.091 0.791 0.352 0.156 0.090 0.353 0.163 0.59 0.22 0.245 0.055 0.488 0.053 0.728-0.004 0.496-0.117 0.905-0.348 1.227-0.693 0.329-0.347 0.458-0.669 0.388-0.966-0.046-0.191-0.231-0.405-0.557-0.643-0.303-0.223-0.646-0.435-1.006-0.619l-0.043-0.020c-0.401-0.215-0.742-0.435-1.065-0.677l0.021 0.015c-0.327-0.245-0.511-0.455-0.553-0.632-0.026-0.112-0.041-0.241-0.041-0.374 0-0.076 0.005-0.15 0.014-0.223l-0.001 0.009c0.024-0.215 0.068-0.378 0.131-0.491 0.205-0.37 0.567-0.75 1.087-1.142 0.527-0.394 0.989-0.637 1.387-0.731 0.205-0.049 0.394-0.023 0.568 0.078s0.278 0.226 0.314 0.375c0.016 0.070-0.045 0.144-0.183 0.222s-0.352 0.188-0.64 0.331c-0.282 0.134-0.529 0.275-0.741 0.422-0.74 0.504-1.077 0.901-1.008 1.192 0.037 0.156 0.554 0.493 1.552 1.013 0.384 0.201 0.747 0.456 1.090 0.764 0.348 0.299 0.557 0.597 0.627 0.895zM29.534 16.602c0.031 0.134 0.125 0.183 0.281 0.146 0.27-0.063 0.577-0.215 0.925-0.454 0.353-0.248 0.55-0.376 0.592-0.386 0.127-0.030 0.207 0.022 0.239 0.157 0.049 0.205-0.107 0.493-0.469 0.862-0.354 0.368-0.705 0.592-1.052 0.674-0.34 0.080-0.645 0.055-0.915-0.075-0.272-0.138-0.431-0.306-0.478-0.504s-0.064-0.46-0.051-0.784c0.011-0.331 0.035-0.767 0.072-1.306 0.043-0.548 0.070-1 0.083-1.355-0.315 0.157-0.528 0.248-0.642 0.275s-0.24-0.003-0.38-0.090c-0.135-0.095-0.215-0.196-0.24-0.302-0.041-0.17 0.381-0.442 1.265-0.815-0.012-0.617-0.072-1.153-0.179-1.606-0.050-0.212-0.004-0.335 0.137-0.369 0.12-0.028 0.288 0.014 0.502 0.129 0.212 0.107 0.341 0.256 0.387 0.447s0.065 0.542 0.058 1.052c0.395-0.131 0.713-0.225 0.954-0.282 0.425-0.1 0.659-0.058 0.703 0.126 0.025 0.107-0.070 0.223-0.287 0.348-0.21 0.125-0.665 0.348-1.367 0.671-0.016 0.594-0.052 1.28-0.107 2.056-0.057 0.769-0.067 1.23-0.030 1.387zM34.281 11.040c0.319-0.075 0.651 0.019 0.998 0.28 0.344 0.255 0.548 0.514 0.61 0.776 0.060 0.255 0.034 0.538-0.079 0.849 0.11 0.086 0.174 0.168 0.193 0.246 0.047 0.198 0.082 0.549 0.104 1.052 0.029 0.502 0.051 0.829 0.065 0.983 0.021 0.152 0.035 0.276 0.043 0.371 0.006 0.088 0.009 0.178 0.008 0.267 0.013 0.184-0.029 0.287-0.129 0.311-0.127 0.030-0.26-0.055-0.397-0.254-0.132-0.208-0.247-0.488-0.345-0.839-0.44 0.949-0.93 1.487-1.468 1.614-0.326 0.077-0.68 0.014-1.065-0.186-0.378-0.21-0.603-0.463-0.674-0.76-0.1-0.425-0.069-0.985 0.095-1.682 0.162-0.704 0.433-1.358 0.813-1.964s0.789-0.96 1.229-1.064zM35.213 12.794c-0.156-0.659-0.365-0.956-0.627-0.895-0.276 0.065-0.552 0.339-0.826 0.823-0.276 0.476-0.483 0.993-0.62 1.548-0.138 0.556-0.172 0.979-0.103 1.269 0.027 0.119 0.109 0.215 0.217 0.261l0.002 0.001c0.066 0.027 0.143 0.043 0.224 0.043 0.054 0 0.106-0.007 0.156-0.020l-0.004 0.001c0.333-0.079 0.655-0.39 0.968-0.935 0.311-0.552 0.471-1.17 0.481-1.852-0.004-0.111 0.041-0.19 0.136-0.234l-0.002-0.011z"></path>
<path fill="#bbf330" style="fill: var(--color7, #bbf330)" d="M33.157 19.973c-0.303 0.075-0.543 0.306-0.643 0.602-1.911 5.65-7.263 9.719-13.572 9.719-0.006 0-0.014 0-0.021 0-3.819 0-7.288-1.499-9.851-3.94l0.006 0.006c-0.165-0.159-0.389-0.257-0.636-0.257-0.075 0-0.148 0.009-0.217 0.026l0.006-0.001c-0.641 0.158-0.883 0.934-0.408 1.392 2.871 2.772 6.785 4.481 11.099 4.481 0.008 0 0.017 0 0.025-0h-0.001c7.096 0 13.116-4.605 15.223-10.986 0.207-0.626-0.368-1.198-1.009-1.041zM4.187 14.15c0.344-0.091 0.605-0.371 0.666-0.719l0.001-0.005c1.213-6.664 7.058-11.72 14.089-11.72 4.571 0 8.641 2.138 11.263 5.464 0.22 0.279 0.58 0.414 0.925 0.328 0.585-0.144 0.85-0.824 0.48-1.3-2.932-3.771-7.516-6.198-12.668-6.198-7.902 0-14.468 5.711-15.785 13.224-0.104 0.593 0.446 1.070 1.030 0.926z"></path>
<path fill="#bbf330" style="fill: var(--color7, #bbf330); stroke: var(--color7, #bbf330)" stroke="#bbf330" stroke-linejoin="round" stroke-linecap="butt" stroke-miterlimit="4" stroke-width="0.6275" d="M43.041 5.331c-3.787 7.241-5.45 2.465-10.782 5.271 0.533-8.405 6.18-3.291 10.782-5.271z"></path>
</symbol>
<symbol id="icon-menu" viewBox="0 0 32 32">
<path fill="#7eb101" style="fill: var(--color5, #7eb101)" d="M2.666 8c0-0.737 0.597-1.334 1.334-1.334v0h24c0.737 0 1.334 0.597 1.334 1.334s-0.597 1.334-1.334 1.334h-24c-0.737 0-1.334-0.597-1.334-1.334v0zM2.666 16.042c0.001-0.736 0.598-1.333 1.334-1.333 0 0 0 0 0 0h24c0.012-0 0.025-0.001 0.039-0.001 0.737 0 1.334 0.597 1.334 1.334s-0.597 1.334-1.334 1.334c-0.014 0-0.027-0-0.041-0.001l0.002 0h-24c-0.737 0-1.334-0.597-1.334-1.334v0zM4 22.752c-0.72 0.022-1.295 0.61-1.295 1.333s0.575 1.311 1.293 1.333l0.002 0h24c0.012 0 0.025 0.001 0.039 0.001 0.737 0 1.334-0.597 1.334-1.334s-0.597-1.334-1.334-1.334c-0.014 0-0.027 0-0.041 0.001l0.002-0h-24z"></path>
</symbol>
<symbol id="icon-one-star" viewBox="0 0 36 32">
<path fill="#ffe550" style="fill: var(--color8, #ffe550)" d="M17.020 1.038c0.592-1.384 2.61-1.384 3.202 0l3.5 8.164c0.248 0.582 0.812 0.98 1.46 1.032l9.080 0.706c1.54 0.12 2.162 1.982 0.99 2.958l-6.916 5.752c-0.371 0.306-0.606 0.766-0.606 1.281 0 0.138 0.017 0.272 0.049 0.401l-0.002-0.011 2.114 8.6c0.358 1.456-1.276 2.608-2.592 1.828l-7.774-4.61c-0.259-0.155-0.571-0.247-0.904-0.247s-0.645 0.092-0.912 0.251l0.008-0.005-7.774 4.61c-1.316 0.78-2.95-0.372-2.592-1.828l2.114-8.6c0.029-0.117 0.046-0.251 0.046-0.389 0-0.515-0.235-0.975-0.604-1.279l-0.003-0.002-6.914-5.752c-1.172-0.976-0.548-2.84 0.99-2.96l9.080-0.704c0.654-0.050 1.203-0.456 1.456-1.023l0.004-0.011 3.5-8.162z"></path>
</symbol>
<symbol id="icon-rocket" viewBox="0 0 32 32">
<path fill="#fff" style="fill: var(--color3, #fff)" d="M32 16c0 8.837-7.163 16-16 16s-16-7.163-16-16c0-8.837 7.163-16 16-16s16 7.163 16 16z"></path>
<path fill="#7eb101" style="fill: var(--color5, #7eb101)" d="M9.489 14.422l2.356 1c0.267-0.533 0.551-1.059 0.855-1.577s0.626-1.015 0.967-1.489l-1.755-0.355-2.423 2.422zM12.911 16.222l2.955 2.956c0.922-0.422 1.702-0.859 2.442-1.351l-0.064 0.040c0.74-0.489 1.34-0.963 1.8-1.422 1.2-1.2 2.081-2.43 2.644-3.689s0.867-2.681 0.911-4.267c-1.585 0.045-3.007 0.349-4.267 0.911s-2.489 1.445-3.689 2.645c-0.46 0.459-0.933 1.059-1.423 1.8-0.452 0.676-0.889 1.456-1.266 2.269l-0.045 0.108zM18 14.089c-0.296-0.296-0.445-0.663-0.445-1.1s0.149-0.803 0.445-1.1c0.296-0.296 0.663-0.444 1.1-0.444s0.804 0.148 1.1 0.444c0.296 0.297 0.445 0.663 0.445 1.1s-0.149 0.804-0.445 1.1c-0.296 0.297-0.663 0.445-1.1 0.445s-0.804-0.148-1.1-0.445zM17.667 22.6l2.422-2.422-0.355-1.756c-0.474 0.341-0.971 0.663-1.489 0.967s-1.045 0.589-1.578 0.856l1 2.355zM24.911 7.178c0.133 2.015-0.119 3.851-0.756 5.511s-1.689 3.223-3.155 4.689l-0.045 0.044-0.044 0.045 0.489 2.445c0.045 0.222 0.033 0.437-0.033 0.644s-0.181 0.393-0.345 0.556l-3.8 3.822-1.889-4.4-3.778-3.778-4.4-1.889 3.823-3.8c0.163-0.163 0.348-0.278 0.555-0.345s0.422-0.077 0.645-0.033l2.444 0.489c0.013-0.013 0.027-0.024 0.044-0.033l0.001-0c0.017-0.009 0.032-0.020 0.045-0.033l0-0c1.467-1.467 3.029-2.523 4.689-3.167s3.496-0.9 5.511-0.767zM8.645 19.445c0.518-0.519 1.151-0.782 1.9-0.789s1.381 0.249 1.9 0.767c0.518 0.519 0.773 1.152 0.767 1.9s-0.271 1.382-0.789 1.9c-0.385 0.385-0.981 0.704-1.789 0.956s-2.019 0.489-3.633 0.711c0.222-1.615 0.455-2.829 0.7-3.644s0.559-1.415 0.945-1.8zM9.578 20.4c-0.207 0.222-0.393 0.571-0.556 1.045s-0.303 1.081-0.422 1.822c0.741-0.119 1.348-0.259 1.822-0.422s0.823-0.349 1.045-0.556c0.281-0.251 0.426-0.567 0.433-0.944 0-0.012 0.001-0.026 0.001-0.041 0-0.37-0.149-0.705-0.389-0.949l0 0c-0.244-0.241-0.579-0.389-0.949-0.389-0.014 0-0.028 0-0.042 0.001l0.002-0c-0.377 0.001-0.714 0.168-0.943 0.432l-0.001 0.002z"></path>
</symbol>
<symbol id="icon-stars" viewBox="0 0 200 32">
<path fill="#ffe550" style="fill: var(--color8, #ffe550)" d="M15.64 1.038c0.592-1.384 2.61-1.384 3.204 0l3.496 8.162c0.25 0.582 0.814 0.98 1.462 1.032l9.080 0.706c1.54 0.12 2.162 1.982 0.99 2.958l-6.918 5.752c-0.371 0.306-0.606 0.766-0.606 1.281 0 0.138 0.017 0.272 0.049 0.401l-0.002-0.011 2.114 8.6c0.36 1.456-1.274 2.608-2.592 1.828l-7.772-4.61c-0.259-0.155-0.571-0.247-0.904-0.247s-0.645 0.092-0.912 0.251l0.008-0.005-7.774 4.61c-1.318 0.78-2.95-0.372-2.592-1.828l2.114-8.6c0.029-0.117 0.046-0.251 0.046-0.389 0-0.515-0.235-0.975-0.604-1.279l-0.003-0.002-6.916-5.75c-1.172-0.978-0.548-2.84 0.992-2.96l9.080-0.704c0.655-0.048 1.206-0.454 1.46-1.021l0.004-0.011 3.496-8.164zM57.020 1.038c0.59-1.384 2.61-1.384 3.202 0l3.5 8.164c0.248 0.582 0.812 0.98 1.46 1.032l9.080 0.706c1.54 0.12 2.162 1.982 0.99 2.958l-6.916 5.752c-0.371 0.306-0.606 0.766-0.606 1.281 0 0.138 0.017 0.272 0.049 0.401l-0.002-0.011 2.114 8.6c0.358 1.456-1.276 2.608-2.592 1.828l-7.774-4.61c-0.259-0.155-0.571-0.247-0.904-0.247s-0.645 0.092-0.912 0.251l0.008-0.005-7.774 4.61c-1.316 0.78-2.95-0.372-2.592-1.828l2.114-8.6c0.029-0.117 0.046-0.251 0.046-0.389 0-0.515-0.235-0.975-0.604-1.279l-0.003-0.002-6.916-5.752c-1.172-0.976-0.548-2.84 0.99-2.96l9.080-0.704c0.655-0.048 1.204-0.454 1.458-1.021l0.004-0.011 3.5-8.164zM98.398 1.038c0.592-1.384 2.61-1.384 3.204 0l3.496 8.162c0.252 0.582 0.816 0.98 1.464 1.032l9.080 0.706c1.54 0.12 2.16 1.982 0.99 2.958l-6.918 5.752c-0.371 0.306-0.606 0.766-0.606 1.281 0 0.138 0.017 0.272 0.049 0.401l-0.002-0.011 2.114 8.6c0.36 1.456-1.274 2.608-2.592 1.828l-7.772-4.61c-0.259-0.155-0.571-0.247-0.905-0.247s-0.646 0.092-0.913 0.252l0.008-0.005-7.772 4.61c-1.318 0.78-2.95-0.372-2.592-1.828l2.112-8.6c0.030-0.117 0.047-0.252 0.047-0.39 0-0.514-0.234-0.974-0.602-1.277l-0.003-0.002-6.918-5.752c-1.172-0.976-0.548-2.84 0.99-2.96l9.080-0.704c0.655-0.048 1.206-0.454 1.46-1.021l0.004-0.011 3.498-8.162zM139.78 1.038c0.59-1.384 2.61-1.384 3.202 0l3.498 8.162c0.25 0.582 0.814 0.98 1.464 1.032l9.080 0.706c1.538 0.12 2.16 1.982 0.988 2.958l-6.916 5.752c-0.371 0.306-0.606 0.766-0.606 1.281 0 0.138 0.017 0.272 0.049 0.401l-0.002-0.011 2.114 8.6c0.358 1.456-1.276 2.608-2.592 1.828l-7.774-4.61c-0.259-0.155-0.571-0.247-0.904-0.247s-0.645 0.092-0.912 0.251l0.008-0.005-7.774 4.61c-1.316 0.78-2.95-0.372-2.592-1.828l2.114-8.6c0.029-0.117 0.046-0.251 0.046-0.389 0-0.515-0.235-0.975-0.604-1.279l-0.003-0.002-6.916-5.752c-1.172-0.976-0.548-2.84 0.99-2.96l9.080-0.704c0.655-0.048 1.204-0.454 1.458-1.021l0.004-0.011 3.5-8.162zM181.158 1.038c0.592-1.384 2.61-1.384 3.204 0l3.494 8.162c0.25 0.582 0.816 0.98 1.464 1.032l9.080 0.706c1.538 0.12 2.162 1.982 0.99 2.958l-6.918 5.752c-0.371 0.306-0.606 0.766-0.606 1.281 0 0.138 0.017 0.272 0.049 0.401l-0.002-0.011 2.114 8.6c0.36 1.456-1.274 2.608-2.592 1.828l-7.772-4.61c-0.259-0.155-0.571-0.247-0.905-0.247s-0.646 0.092-0.913 0.252l0.008-0.005-7.772 4.61c-1.318 0.78-2.95-0.372-2.592-1.828l2.112-8.6c0.029-0.117 0.046-0.251 0.046-0.389 0-0.515-0.235-0.975-0.604-1.279l-0.003-0.002-6.916-5.752c-1.172-0.976-0.548-2.84 0.99-2.96l9.080-0.704c0.655-0.048 1.204-0.454 1.458-1.021l0.004-0.011 3.504-8.162z"></path>
</symbol>
</defs>
</svg>
